<svg xmlns="http://www.w3.org/2000/svg" width="40.121" height="40.121" viewBox="0 0 40.121 40.121">
  <g id="logo-instagram" transform="translate(-32 -32)">
    <path id="Path_14" data-name="Path 14" d="M60.419,35.343A8.384,8.384,0,0,1,68.778,43.7V60.419a8.384,8.384,0,0,1-8.359,8.359H43.7a8.384,8.384,0,0,1-8.359-8.359V43.7A8.384,8.384,0,0,1,43.7,35.343H60.419m0-3.343H43.7A11.737,11.737,0,0,0,32,43.7V60.419a11.737,11.737,0,0,0,11.7,11.7H60.419a11.737,11.737,0,0,0,11.7-11.7V43.7A11.737,11.737,0,0,0,60.419,32Z" fill="#fff"/>
    <path id="Path_15" data-name="Path 15" d="M351.838,111.685a2.5,2.5,0,1,1,1.775-.733A2.508,2.508,0,0,1,351.838,111.685Z" transform="translate(-288.911 -67.983)" fill="#fff"/>
    <path id="Path_16" data-name="Path 16" d="M154.03,147.343a6.687,6.687,0,1,1-6.687,6.687,6.687,6.687,0,0,1,6.687-6.687m0-3.343a10.03,10.03,0,1,0,10.03,10.03A10.03,10.03,0,0,0,154.03,144Z" transform="translate(-101.97 -101.97)" fill="#fff"/>
  </g>
</svg>
