<svg xmlns="http://www.w3.org/2000/svg" width="127.633" height="83.1" viewBox="0 0 127.633 83.1">
  <path id="_16039538201535696657" data-name="16039538201535696657" d="M134.48,102.7a2.2,2.2,0,0,0,.117-.68V23.358a2.182,2.182,0,0,0-.118-.684c-.01-.03-.016-.059-.028-.089a2.209,2.209,0,0,0-.409-.681c-.012-.013-.013-.03-.025-.043s-.016-.01-.024-.018a2.227,2.227,0,0,0-.654-.478c-.019-.009-.034-.021-.053-.03a2.19,2.19,0,0,0-.757-.182c-.027,0-.052-.007-.078-.007s-.047-.007-.073-.007H9.186c-.025,0-.049.006-.074.007l-.071.007a2.217,2.217,0,0,0-.767.185c-.015.006-.027.016-.041.022a2.2,2.2,0,0,0-.663.484c-.007.007-.016.009-.024.016s-.013.028-.025.041a2.22,2.22,0,0,0-.41.683c-.012.03-.018.059-.028.09a2.182,2.182,0,0,0-.118.684v78.66a2.2,2.2,0,0,0,.121.693c.01.03.016.058.027.087a2.222,2.222,0,0,0,.415.684c.01.012.013.027.024.038s.021.016.031.027a2.244,2.244,0,0,0,.235.207c.037.028.07.062.108.089a2.057,2.057,0,0,0,.311.173c.027.012.05.031.077.041a2.223,2.223,0,0,0,.872.179H132.374a2.2,2.2,0,0,0,.872-.179c.041-.018.08-.044.12-.065a2.265,2.265,0,0,0,.268-.151c.044-.031.084-.071.127-.105a2.039,2.039,0,0,0,.215-.191c.012-.012.025-.021.037-.033s.015-.031.027-.044a2.22,2.22,0,0,0,.407-.678A.809.809,0,0,0,134.48,102.7ZM11.407,28.4l37.38,34.143L11.407,96.955Zm76.614,32.47a2.118,2.118,0,0,0-.446.327c-.049.053-.065.123-.108.179L70.781,76.613,14.91,25.579H126.652ZM52.08,65.546l17.2,15.713a2.218,2.218,0,0,0,3,0l16.99-15.518L126.642,99.8H14.878Zm40.482-2.813L130.155,28.4V96.99Z" transform="translate(-6.964 -21.139)" fill="#a8c5d2"/>
</svg>
