<svg xmlns="http://www.w3.org/2000/svg" width="147.06" height="220.591" viewBox="0 0 147.06 220.591">
  <g id="_6296675151579885155" data-name="6296675151579885155" transform="translate(-99.213 -123.305)">
    <g id="Group_17" data-name="Group 17" transform="translate(99.213 123.305)">
      <g id="Group_16" data-name="Group 16" transform="translate(0 0)">
        <path id="Path_17" data-name="Path 17" d="M211.774,185.313a50.552,50.552,0,1,0,50.552,50.552A50.612,50.612,0,0,0,211.774,185.313Zm0,91.913a41.079,41.079,0,0,1-23.443-7.348c6.22-3.248,14.475-6.439,23.443-6.439s17.217,3.188,23.442,6.44A41.08,41.08,0,0,1,211.774,277.226Zm30.688-13.891c-7.358-4.24-18.394-9.087-30.688-9.087s-23.342,4.851-30.691,9.085a41.361,41.361,0,1,1,61.379,0Z" transform="translate(-138.244 -162.335)" fill="#fff"/>
        <path id="Path_18" data-name="Path 18" d="M258.61,234.92A22.978,22.978,0,1,0,281.588,257.9,23,23,0,0,0,258.61,234.92Zm0,36.765A13.787,13.787,0,1,1,272.4,257.9,13.8,13.8,0,0,1,258.61,271.685Z" transform="translate(-185.08 -193.559)" fill="#fff"/>
        <path id="Path_19" data-name="Path 19" d="M172.743,123.305a73.549,73.549,0,0,0-64.707,108.478l60.686,109.743a4.6,4.6,0,0,0,8.042,0l60.7-109.784a73.543,73.543,0,0,0-64.725-108.437Zm56.665,104.026L172.743,329.8,116.1,227.371a64.341,64.341,0,1,1,113.311-.04Z" transform="translate(-99.213 -123.305)" fill="#fff"/>
      </g>
    </g>
  </g>
</svg>
