<svg xmlns="http://www.w3.org/2000/svg" width="52.852" height="43.759" viewBox="0 0 52.852 43.759">
  <g id="outlined" transform="translate(-3.574 -10.756)">
    <g id="Brands" transform="translate(4 1)">
      <g id="Twitter" transform="translate(0 10)">
        <path id="Shape" d="M45.71,7.265s4.079-.327,5.716-1.567c0,0-.392,1.427-5.3,5.943,0,0,1.653,24.365-23.528,30.332,0,0-12.77,2.769-22.024-4.294,0,0,9.687,1.749,15.137-4.369A9.916,9.916,0,0,1,6.457,26.1s2.654.582,4.232-.146A10.25,10.25,0,0,1,2.87,15.472s2.152,1.6,4.088,1.311c0,0-7.173-6.19-2.726-13.905,0,0,9.611,11.534,21.523,10.849a10.577,10.577,0,0,1-.32-2.585A10.313,10.313,0,0,1,35.672.756a10.137,10.137,0,0,1,7.3,3.1A11.6,11.6,0,0,0,49.928,1.6s.16,2.222-4.218,5.661Z" fill="none" stroke="#fff" stroke-linecap="round" stroke-linejoin="round" stroke-width="2" fill-rule="evenodd"/>
      </g>
    </g>
  </g>
</svg>
