<svg xmlns="http://www.w3.org/2000/svg" width="128.41" height="128.41" viewBox="0 0 128.41 128.41">
  <path id="_17041734501530272912" data-name="17041734501530272912" d="M124.55,99.47,100.473,83.381c-4.007-2.681-7.868-2.587-11.206.158-9.374,7.686-14.933,5.482-15.837,5.027A59.161,59.161,0,0,1,55.4,75.69C45.808,66.1,42.346,59.973,39.847,54.984c-1-2-2.148-8.705,4.414-15.7,3.068-3.266,3.352-7.279.8-11.292-1.966-3.093-1.966-3.093-3.513-5.366C40.024,20.377,36.977,15.888,28.94,3.86A8.435,8.435,0,0,0,21.4,0c-3.783,0-5.7,1.918-7.242,3.459L6.134,11.485C.452,17.164,0,20.42,0,24.077c0,4.6,6.648,34.614,38.234,66.091C69.719,121.759,99.7,128.41,104.3,128.41h.177c3.625-.054,6.846-.532,12.445-6.134l8.026-8.026c1.544-1.541,3.462-3.459,3.462-7.242A8.429,8.429,0,0,0,124.55,99.47Zm-3.381,11-8.026,8.026c-4.505,4.505-6.463,4.534-8.842,4.567-.329-.011-29.136-3.406-62.284-36.674C9.136,53.619,5.356,24.334,5.35,24.077c0-2.373,0-4.243,4.564-8.809L17.94,7.242c1.41-1.4,1.972-1.891,3.462-1.891a3.181,3.181,0,0,1,3.093,1.485c8.05,12.049,11.1,16.549,12.63,18.793,1.506,2.215,1.506,2.215,3.424,5.235,1.52,2.389.808,3.7-.187,4.759-8.349,8.892-7.116,18.114-5.3,21.752,2.683,5.366,6.394,11.939,16.552,22.1A64.412,64.412,0,0,0,71.035,93.351a12.665,12.665,0,0,0,5.519,1.161c3.547,0,9.216-1.185,16.1-6.835a3.191,3.191,0,0,1,2.111-.9A5.178,5.178,0,0,1,97.5,87.835l24.077,16.083a3.172,3.172,0,0,1,1.482,3.09C123.059,108.5,122.573,109.063,121.168,110.467Z" fill="#a8c5d2"/>
</svg>
