<svg xmlns="http://www.w3.org/2000/svg" width="73" height="73" viewBox="0 0 73 73">
  <g id="Group_8" data-name="Group 8" transform="translate(-192.711 -101.756)">
    <path id="Subtraction_1" data-name="Subtraction 1" d="M-10065.787,150.756a36.276,36.276,0,0,1-14.208-2.868,36.372,36.372,0,0,1-11.6-7.822,36.386,36.386,0,0,1-7.823-11.6,36.267,36.267,0,0,1-2.868-14.207,36.27,36.27,0,0,1,2.868-14.208,36.389,36.389,0,0,1,7.823-11.6,36.385,36.385,0,0,1,11.6-7.823,36.272,36.272,0,0,1,14.208-2.869,36.27,36.27,0,0,1,14.207,2.869,36.376,36.376,0,0,1,11.6,7.823,36.392,36.392,0,0,1,7.821,11.6,36.27,36.27,0,0,1,2.868,14.208,36.332,36.332,0,0,1-2.407,13.062,36.363,36.363,0,0,1-6.623,10.974c-.671-.442-1.343-.934-2-1.461a34.621,34.621,0,0,1-3.852-3.6c-1.154-1.267-2.218-2.515-3.161-3.712s-1.871-2.376-2.751-3.494c-.792-1.006-1.523-1.938-2.117-2.7-.54-.688-1.187-1.474-1.924-2.338s-1.639-1.821-2.64-2.8a16.474,16.474,0,0,0-3.768-2.7,5.216,5.216,0,0,0,.715.056,9.642,9.642,0,0,0,6.846-2.888,10,10,0,0,0,3-7.507,8.775,8.775,0,0,0-3.08-7.152c-2.591-2.152-6.293-3.243-11-3.243h-18.865v.55h.715a3.354,3.354,0,0,1,2.449,1.017,3.565,3.565,0,0,1,1.072,2.447V129.3a3.412,3.412,0,0,1-1.1,2.419,3.422,3.422,0,0,1-2.421.991h-.715v.55h16.721v-.55h-.716a3.444,3.444,0,0,1-2.474-1.017,3.311,3.311,0,0,1-1.045-2.449V97.177h4.178a7.379,7.379,0,0,1,5.281,2.117,8.007,8.007,0,0,1,2.2,6.024,10.232,10.232,0,0,1-.894,4.5,6.361,6.361,0,0,1-2.682,2.819,10.836,10.836,0,0,1-5.172,1.265h-1.1v.55c.765.182,1.8,1.292,3.08,3.3.76,1.068,2.433,3.541,4.84,7.152,2.545,3.818,4.218,6.3,5.114,7.588,3.354,5.119,7.437,8.7,12.134,10.636a36.337,36.337,0,0,1-10.329,5.612A36.427,36.427,0,0,1-10065.787,150.756Z" transform="translate(10295 24)" fill="#fff"/>
  </g>
</svg>
